<svg width="54" height="43" viewBox="0 0 54 43" fill="none" xmlns="http://www.w3.org/2000/svg">
<path d="M10.9393 42.0607C11.5251 42.6464 12.4749 42.6464 13.0607 42.0607L22.6066 32.5147C23.1924 31.9289 23.1924 30.9792 22.6066 30.3934C22.0208 29.8076 21.0711 29.8076 20.4853 30.3934L12 38.8787L3.51472 30.3934C2.92893 29.8076 1.97918 29.8076 1.3934 30.3934C0.807612 30.9792 0.807612 31.9289 1.3934 32.5147L10.9393 42.0607ZM10.5 2L10.5 41H13.5L13.5 2H10.5Z" fill="#4134D7"/>
<path d="M43.0607 0.93934C42.4749 0.353553 41.5251 0.353553 40.9393 0.93934L31.3934 10.4853C30.8076 11.0711 30.8076 12.0208 31.3934 12.6066C31.9792 13.1924 32.9289 13.1924 33.5147 12.6066L42 4.12132L50.4853 12.6066C51.0711 13.1924 52.0208 13.1924 52.6066 12.6066C53.1924 12.0208 53.1924 11.0711 52.6066 10.4853L43.0607 0.93934ZM43.5 41V2H40.5V41H43.5Z" fill="#4134D7"/>
</svg>
