<svg width="94" height="163" viewBox="0 0 94 163" fill="none" xmlns="http://www.w3.org/2000/svg">
<path d="M46.9001 0.400024C40.8001 0.400024 34.8001 1.70003 29.1001 4.00003C23.5001 6.40003 18.4001 9.80003 14.1001 14.2C9.80012 18.6 6.40012 23.7 4.10012 29.4C1.80012 35.1 0.600117 41.2 0.700117 47.3V62.8H38.2001V40.3C38.2001 39.2 38.4001 38.2 38.8001 37.2C39.2001 36.2 39.8001 35.3 40.5001 34.6C41.2001 33.9 42.1001 33.3 43.1001 32.9C44.1001 32.5 45.1001 32.3 46.2001 32.3H47.6001C48.6001 32.3 49.7001 32.5 50.7001 32.9C51.7001 33.3 52.6001 33.9 53.3001 34.6C54.0001 35.3 54.6001 36.2 55.0001 37.2C55.4001 38.2 55.6001 39.2 55.6001 40.3V100.5C60.5001 100.5 65.4001 99.5 70.0001 97.6C74.6001 95.7 78.7001 92.9 82.2001 89.4C85.7001 85.9 88.5001 81.7 90.3001 77.2C92.2001 72.6 93.2001 67.7 93.2001 62.8V47.3C93.2001 34.9 88.4001 22.9 79.7001 14.1C75.4001 9.70004 70.3001 6.30002 64.7001 3.90002C59.0001 1.60002 53.0001 0.400024 46.9001 0.400024Z" fill="#1D1D1B"/>
<path d="M47.6 131H46.2C45.2 131 44.1 130.8 43.1 130.4C42.1 130 41.3 129.4 40.5 128.7C39.8 128 39.2 127.1 38.8 126.1C38.4 125.1 38.2 124.1 38.2 123V62.8C33.3 62.8 28.4 63.8001 23.8 65.7001C19.2 67.6001 15.1 70.4001 11.6 73.9001C8.10002 77.4001 5.30002 81.6001 3.50002 86.1001C1.60002 90.7001 0.600019 95.6001 0.600019 100.5V115.8C0.500019 121.9 1.70002 128 4.00002 133.7C6.30002 139.4 9.70002 144.6 14 148.9C18.3 153.3 23.4 156.7 29 159.1C34.6 161.5 40.7 162.7 46.8 162.7C52.9 162.7 59 161.5 64.6 159.1C70.2 156.7 75.4 153.3 79.6 148.9C83.9 144.5 87.3 139.4 89.6 133.7C91.9 128 93 121.9 93 115.8V100.5H55.5V123C55.5 124.1 55.3 125.1 54.9 126.1C54.5 127.1 53.9 128 53.2 128.7C52.5 129.4 51.6 130 50.6 130.4C49.7 130.8 48.7 131 47.6 131Z" fill="#1D1D1B"/>
</svg>
