<svg width="142" height="141" viewBox="0 0 142 141" fill="none" xmlns="http://www.w3.org/2000/svg">
<g clip-path="url(#clip0_340_3)">
<g filter="url(#filter0_d_340_3)">
<path d="M79.026 59.29L122.249 16.306L105.851 0L70.828 34.83L35.805 0L19.408 16.306L62.63 59.29C64.894 61.541 67.861 62.667 70.828 62.667C73.795 62.667 76.762 61.542 79.026 59.29ZM141.596 105.209L106.573 70.379L141.596 35.548L125.199 19.242L81.978 62.226C77.451 66.729 77.451 74.029 81.978 78.532L125.199 121.516L141.596 105.209ZM70.768 105.986L105.791 140.816L122.187 124.51L78.966 81.526C74.437 77.023 67.098 77.023 62.569 81.526L19.348 124.51L35.745 140.816L70.768 105.986ZM59.618 78.591C61.793 76.428 63.014 73.496 63.014 70.438C63.014 67.38 61.793 64.447 59.618 62.285L16.397 19.301L0 35.608L35.023 70.438L0 105.269L16.397 121.575L59.618 78.591Z" fill="black"/>
</g>
</g>
<defs>
<filter id="filter0_d_340_3" x="-2.982" y="-2.982" width="147.56" height="146.78" filterUnits="userSpaceOnUse" color-interpolation-filters="sRGB">
<feFlood flood-opacity="0" result="BackgroundImageFix"/>
<feColorMatrix in="SourceAlpha" type="matrix" values="0 0 0 0 0 0 0 0 0 0 0 0 0 0 0 0 0 0 127 0" result="hardAlpha"/>
<feOffset/>
<feGaussianBlur stdDeviation="1.491"/>
<feColorMatrix type="matrix" values="0 0 0 0 0 0 0 0 0 0 0 0 0 0 0 0 0 0 0.13 0"/>
<feBlend mode="normal" in2="BackgroundImageFix" result="effect1_dropShadow_340_3"/>
<feBlend mode="normal" in="SourceGraphic" in2="effect1_dropShadow_340_3" result="shape"/>
</filter>
<clipPath id="clip0_340_3">
<rect width="141.596" height="140.816" fill="white"/>
</clipPath>
</defs>
</svg>
